<svg xmlns="http://www.w3.org/2000/svg" width="36" height="30.75" viewBox="0 0 36 30.75">
  <path id="Icon_material-directions-bike" data-name="Icon material-directions-bike" d="M23.25,8.25a3,3,0,1,0-3-3A3.009,3.009,0,0,0,23.25,8.25ZM7.5,18a7.5,7.5,0,0,0,0,15,7.5,7.5,0,0,0,0-15Zm0,12.75a5.25,5.25,0,0,1,0-10.5,5.25,5.25,0,0,1,0,10.5Zm8.7-15,3.6-3.6,1.2,1.2a10.509,10.509,0,0,0,7.65,3.15v-3a7.452,7.452,0,0,1-5.4-2.25L20.4,8.4A3.678,3.678,0,0,0,18,7.5a2.517,2.517,0,0,0-2.1.9l-4.2,4.2a2.962,2.962,0,0,0-.9,2.1,2.517,2.517,0,0,0,.9,2.1L16.5,21v7.5h3V19.2l-3.3-3.45ZM28.5,18A7.5,7.5,0,1,0,36,25.5,7.427,7.427,0,0,0,28.5,18Zm0,12.75a5.25,5.25,0,1,1,5.25-5.25A5.315,5.315,0,0,1,28.5,30.75Z" transform="translate(0 -2.25)"/>
</svg>
